# xmcd
#
# Track frame offsets: 
#        150
#        18392
#        34340
#        53000
#        75647
#        100104
#        114211
#        136524
#        161057
#        174409
#        195049
#        213394
#        235983
#        255025
#
# Disc length: 3599 seconds
#
# Revision: 0
# Processed by: cddbd v1.5.2PL0 Copyright (c) Steve Scherf et al.
# Submitted via: ExactAudioCopy v0.99pb5
#
DISCID=9d0e0d0e
DTITLE=Cyndi Lauper - To Memphis With Love
DYEAR=2011
DGENRE=Blues
TTITLE0=Shattered Dreams
TTITLE1=Just Your Fool
TTITLE2=Early in the Morning
TTITLE3=Romance in the Dark
TTITLE4=How Blue Can You Get?
TTITLE5=Down Don't Bother Me
TTITLE6=Down So Low
TTITLE7=Crossroads
TTITLE8=Lead Me On
TTITLE9=Don't Cry No More
TTITLE10=She Bop
TTITLE11=Mother Earth
TTITLE12=Change of Heart
TTITLE13=Girls Just Wanna Have Fun
EXTD=
EXTT0=
EXTT1=
EXTT2=
EXTT3=
EXTT4=
EXTT5=
EXTT6=
EXTT7=
EXTT8=
EXTT9=
EXTT10=
EXTT11=
EXTT12=
EXTT13=
PLAYORDER=
